<svg xmlns="http://www.w3.org/2000/svg" width="75" height="74"><defs><clipPath id="a"><path fill="#fff" d="M37.5 0C58.21 0 75 16.375 75 36.574c0 20.2-16.79 36.574-37.5 36.574S0 56.773 0 36.574C0 16.375 16.79 0 37.5 0z"/></clipPath><clipPath id="b"><path d="M37.5 0C58.21 0 75 16.375 75 36.574c0 20.2-16.79 36.574-37.5 36.574S0 56.773 0 36.574C0 16.375 16.79 0 37.5 0z"/></clipPath><filter id="c" width="200%" height="200%" x="-50%" y="-50%"><feGaussianBlur in="SourceGraphic" result="FeGaussianBlur1248Out" stdDeviation="6.5 6.5"/></filter><filter id="f" width="200%" height="200%" x="-50%" y="-50%"><feGaussianBlur in="SourceGraphic" result="FeGaussianBlur1255Out" stdDeviation="0 0"/></filter><mask id="d"><path fill="#fff" d="M16 27h17v22H16zm19 9h10v-9h2v9h15v13H35zM12 25h38v1H12zm7 11h11v-6H19zm19 11h14v-7H38zm21 0v-7h-6v7zm-40 0h11v-7H19z"/></mask><mask id="g"><path fill="#fff" d="M16 27h17v22H16zm19 9h10v-9h2v9h15v13H35zM12 25h38v1H12zm7 11h11v-6H19zm19 11h14v-7H38zm21 0v-7h-6v7zm-40 0h11v-7H19z"/></mask><linearGradient id="e" x1="37" x2="37" y1="49" y2="25" gradientUnits="userSpaceOnUse"><stop offset="0" stop-opacity=".96"/><stop offset=".5" stop-color="#d0d0d0" stop-opacity=".96"/><stop offset="1" stop-color="#9e9e9e" stop-opacity=".96"/></linearGradient></defs><path fill="#1c242a" d="M37.5 0C58.21 0 75 16.375 75 36.574c0 20.2-16.79 36.574-37.5 36.574S0 56.773 0 36.574C0 16.375 16.79 0 37.5 0z"/><path fill="none" stroke="#000" stroke-linecap="round" stroke-linejoin="round" stroke-miterlimit="20" stroke-width="6" d="M37.5 0C58.21 0 75 16.375 75 36.574c0 20.2-16.79 36.574-37.5 36.574S0 56.773 0 36.574C0 16.375 16.79 0 37.5 0z" clip-path="url(&quot;#a&quot;)"/><g clip-path="url(#b)"><path fill="#fff" fill-opacity=".24" d="M-1 62V12h76v50zm17-13h17V27H16zm19 0h27V36H47v-9h-2v9H35zM12 26h38v-1H12zm7 4h11v6H19zm19 10h14v7H38zm15 7v-7h6v7zm-34-7h11v7H19z" filter="url(#c)" mask="url(&quot;#d&quot;)"/><path fill="#bb9c66" d="M16 27h17v22H16zm19 9h10v-9h2v9h15v13H35zM12 25h38v1H12zm7 11h11v-6H19zm19 11h14v-7H38zm21 0v-7h-6v7zm-40 0h11v-7H19z"/><path fill="url(#e)" d="M16 27h17v22H16zm19 9h10v-9h2v9h15v13H35zM12 25h38v1H12zm7 11h11v-6H19zm19 11h14v-7H38zm21 0v-7h-6v7zm-40 0h11v-7H19z"/><path fill="#fff" fill-opacity=".24" d="M-1 62V12h76v50zm17-13h17V27H16zm19 0h27V36H47v-9h-2v9H35zM12 26h38v-1H12zm7 4h11v6H19zm19 10h14v7H38zm15 7v-7h6v7zm-34-7h11v7H19z" filter="url(#c)" mask="url(&quot;#d&quot;)"/><path fill="#fff1d8" fill-opacity=".44" d="M12 50V24h50v26-13H47v-9h-2v9H35v13h-2V28H16v22zm4 0h17-17zm19 0h27-27zM12 27h38v-1H12zm7 4h11v6H19zm19 10h14v7H38zm15 7v-7h6v7zm-34-7h11v7H19z" filter="url(#f)" mask="url(&quot;#g&quot;)"/></g></svg>